# MagicaVoxel @ Ephtracy

# group
o 

# material
mtllib dolphin.mtl
usemtl palette

# normals
vn -1 0 0
vn 1 0 0
vn 0 0 1
vn 0 0 -1
vn 0 -1 0
vn 0 1 0

# texcoords
vt 0.00195313 0.5
vt 0.685547 0.5
vt 0.751953 0.5
vt 0.994141 0.5

# verts
v -2.3 1.4 -1.9
v -2.3 1.4 -2
v -2.3 1.5 -1.9
v -2.3 1.5 -2
v -2.2 1.5 -1.9
v -2.2 1.5 -2
v -2.2 1.6 -1.9
v -2.2 1.6 -2
v -2 1.3 -1.9
v -2 1.3 -2
v -2 1.4 -1.9
v -2 1.4 -2
v -1.8 1.1 -1.9
v -1.8 1.1 -2
v -1.8 1.3 -1.9
v -1.8 1.3 -2
v -1.8 1.6 -1.9
v -1.8 1.6 -2
v -1.8 1.7 -1.9
v -1.8 1.7 -2
v -1.7 0.9 -1.9
v -1.7 0.9 -2
v -1.7 1.1 -1.9
v -1.7 1.1 -2
v -1.7 1.7 -1.9
v -1.7 1.7 -2
v -1.7 1.8 -1.9
v -1.7 1.8 -2
v -1.6 1.8 -1.9
v -1.6 1.8 -2
v -1.6 1.9 -1.9
v -1.6 1.9 -2
v -1.5 1.9 -1.9
v -1.5 1.9 -2
v -1.5 2.1 -1.9
v -1.5 2.1 -2
v -1.4 2.1 -1.9
v -1.4 2.1 -2
v -1.4 2.2 -1.9
v -1.4 2.2 -2
v -1.3 2.2 -1.9
v -1.3 2.2 -2
v -1.3 2.3 -1.9
v -1.3 2.3 -2
v -1.1 2.3 -1.9
v -1.1 2.3 -2
v -1.1 2.4 -1.9
v -1.1 2.4 -2
v -1 2.7 -1.9
v -1 2.7 -2
v -1 2.8 -1.9
v -1 2.8 -2
v -0.9 2.6 -1.9
v -0.9 2.6 -2
v -0.9 2.7 -1.9
v -0.9 2.7 -2
v -0.8 2.4 -1.9
v -0.8 2.4 -2
v -0.8 2.5 -1.9
v -0.8 2.5 -2
v -0.8 2.6 -1.9
v -0.8 2.6 -2
v -0.7 1.5 -1.9
v -0.7 1.5 -2
v -0.7 1.6 -1.9
v -0.7 1.6 -2
v -0.6 1.3 -1.9
v -0.6 1.3 -2
v -0.6 1.4 -1.9
v -0.6 1.4 -2
v -0.5 1.4 -1.9
v -0.5 1.4 -2
v -0.5 1.5 -1.9
v -0.5 1.5 -2
v -1.6 0.9 -1.9
v -1.6 0.9 -2
v -1.6 1 -1.9
v -1.6 1 -2
v -1.5 1 -1.9
v -1.5 1 -2
v -1.5 1.4 -1.9
v -1.5 1.4 -2
v -1.5 1.5 -1.9
v -1.5 1.5 -2
v -1.4 1.5 -1.9
v -1.4 1.5 -2
v -1.4 1.6 -1.9
v -1.4 1.6 -2
v -0.6 2.7 -1.9
v -0.6 2.7 -2
v -0.6 2.8 -1.9
v -0.6 2.8 -2
v -0.4 2.6 -1.9
v -0.4 2.6 -2
v -0.4 2.7 -1.9
v -0.4 2.7 -2
v -0.3 2.5 -1.9
v -0.3 2.5 -2
v -0.3 2.6 -1.9
v -0.3 2.6 -2
v -0.2 1.3 -1.9
v -0.2 1.3 -2
v -0.2 1.4 -1.9
v -0.2 1.4 -2
v -0.1 2.4 -1.9
v -0.1 2.4 -2
v -0.1 2.5 -1.9
v -0.1 2.5 -2
v 0.2 2.3 -1.9
v 0.2 2.3 -2
v 0.2 2.4 -1.9
v 0.2 2.4 -2
v 0.3 1.4 -1.9
v 0.3 1.4 -2
v 0.3 1.5 -1.9
v 0.3 1.5 -2
v 0.4 2.2 -1.9
v 0.4 2.2 -2
v 0.4 2.3 -1.9
v 0.4 2.3 -2
v 0.5 2.1 -1.9
v 0.5 2.1 -2
v 0.5 2.2 -1.9
v 0.5 2.2 -2
v 0.6 1.9 -1.9
v 0.6 1.9 -2
v 0.6 2.1 -1.9
v 0.6 2.1 -2
v 0.8 1.5 -1.9
v 0.8 1.5 -2
v 0.8 1.6 -1.9
v 0.8 1.6 -2
v 0.8 1.8 -1.9
v 0.8 1.8 -2
v 0.8 1.9 -1.9
v 0.8 1.9 -2
v 0.9 1.6 -1.9
v 0.9 1.6 -2
v 0.9 1.8 -1.9
v 0.9 1.8 -2
v -2.3 1.4 -1.9
v -2.3 1.5 -1.9
v -2.2 1.5 -1.9
v -2.2 1.6 -1.9
v -2 1.3 -1.9
v -2 1.4 -1.9
v -1.8 1.1 -1.9
v -1.8 1.3 -1.9
v -1.8 1.6 -1.9
v -1.8 1.7 -1.9
v -1.7 0.9 -1.9
v -1.7 1.1 -1.9
v -1.7 1.4 -1.9
v -1.7 1.6 -1.9
v -1.7 1.7 -1.9
v -1.7 1.8 -1.9
v -1.6 0.9 -1.9
v -1.6 1 -1.9
v -1.6 1.8 -1.9
v -1.6 1.9 -1.9
v -1.5 1 -1.9
v -1.5 1.4 -1.9
v -1.5 1.5 -1.9
v -1.5 1.9 -1.9
v -1.5 2.1 -1.9
v -1.4 1.5 -1.9
v -1.4 1.6 -1.9
v -1.4 2.1 -1.9
v -1.4 2.2 -1.9
v -1.3 2.2 -1.9
v -1.3 2.3 -1.9
v -1.2 1.6 -1.9
v -1.2 1.7 -1.9
v -1.1 2.3 -1.9
v -1.1 2.4 -1.9
v -1 1.7 -1.9
v -1 1.8 -1.9
v -1 2.7 -1.9
v -1 2.8 -1.9
v -0.9 2.6 -1.9
v -0.9 2.7 -1.9
v -0.8 2.4 -1.9
v -0.8 2.5 -1.9
v -0.8 2.6 -1.9
v -0.7 1.5 -1.9
v -0.7 1.6 -1.9
v -0.6 1.3 -1.9
v -0.6 1.4 -1.9
v -0.6 2.7 -1.9
v -0.6 2.8 -1.9
v -0.5 1.4 -1.9
v -0.5 1.5 -1.9
v -0.4 1.5 -1.9
v -0.4 1.6 -1.9
v -0.4 2.6 -1.9
v -0.4 2.7 -1.9
v -0.3 1.6 -1.9
v -0.3 1.7 -1.9
v -0.3 2.5 -1.9
v -0.3 2.6 -1.9
v -0.2 1.3 -1.9
v -0.2 1.4 -1.9
v -0.2 1.7 -1.9
v -0.2 1.8 -1.9
v -0.1 1.4 -1.9
v -0.1 1.6 -1.9
v -0.1 2.4 -1.9
v -0.1 2.5 -1.9
v 0 1.6 -1.9
v 0 1.7 -1.9
v 0.0999999 1.8 -1.9
v 0.0999999 2 -1.9
v 0.2 1.8 -1.9
v 0.2 1.9 -1.9
v 0.2 2.3 -1.9
v 0.2 2.4 -1.9
v 0.3 1.4 -1.9
v 0.3 1.5 -1.9
v 0.3 1.8 -1.9
v 0.3 1.9 -1.9
v 0.3 2 -1.9
v 0.4 1.6 -1.9
v 0.4 1.7 -1.9
v 0.4 2.2 -1.9
v 0.4 2.3 -1.9
v 0.5 2.1 -1.9
v 0.5 2.2 -1.9
v 0.6 1.9 -1.9
v 0.6 2.1 -1.9
v 0.8 1.5 -1.9
v 0.8 1.6 -1.9
v 0.8 1.8 -1.9
v 0.8 1.9 -1.9
v 0.9 1.6 -1.9
v 0.9 1.8 -1.9
v -2.3 1.4 -2
v -2.3 1.5 -2
v -2.2 1.5 -2
v -2.2 1.6 -2
v -2 1.3 -2
v -2 1.4 -2
v -1.8 1.1 -2
v -1.8 1.3 -2
v -1.8 1.6 -2
v -1.8 1.7 -2
v -1.7 0.9 -2
v -1.7 1.1 -2
v -1.7 1.4 -2
v -1.7 1.6 -2
v -1.7 1.7 -2
v -1.7 1.8 -2
v -1.6 0.9 -2
v -1.6 1 -2
v -1.6 1.8 -2
v -1.6 1.9 -2
v -1.5 1 -2
v -1.5 1.4 -2
v -1.5 1.5 -2
v -1.5 1.9 -2
v -1.5 2.1 -2
v -1.4 1.5 -2
v -1.4 1.6 -2
v -1.4 2.1 -2
v -1.4 2.2 -2
v -1.3 2.2 -2
v -1.3 2.3 -2
v -1.2 1.6 -2
v -1.2 1.7 -2
v -1.1 2.3 -2
v -1.1 2.4 -2
v -1 1.7 -2
v -1 1.8 -2
v -1 2.7 -2
v -1 2.8 -2
v -0.9 2.6 -2
v -0.9 2.7 -2
v -0.8 2.4 -2
v -0.8 2.5 -2
v -0.8 2.6 -2
v -0.7 1.5 -2
v -0.7 1.6 -2
v -0.6 1.3 -2
v -0.6 1.4 -2
v -0.6 2.7 -2
v -0.6 2.8 -2
v -0.5 1.4 -2
v -0.5 1.5 -2
v -0.4 1.5 -2
v -0.4 1.6 -2
v -0.4 2.6 -2
v -0.4 2.7 -2
v -0.3 1.6 -2
v -0.3 1.7 -2
v -0.3 2.5 -2
v -0.3 2.6 -2
v -0.2 1.3 -2
v -0.2 1.4 -2
v -0.2 1.7 -2
v -0.2 1.8 -2
v -0.1 1.4 -2
v -0.1 1.6 -2
v -0.1 2.4 -2
v -0.1 2.5 -2
v 0 1.6 -2
v 0 1.7 -2
v 0.0999999 1.8 -2
v 0.0999999 2 -2
v 0.2 1.8 -2
v 0.2 1.9 -2
v 0.2 2.3 -2
v 0.2 2.4 -2
v 0.3 1.4 -2
v 0.3 1.5 -2
v 0.3 1.8 -2
v 0.3 1.9 -2
v 0.3 2 -2
v 0.4 1.6 -2
v 0.4 1.7 -2
v 0.4 2.2 -2
v 0.4 2.3 -2
v 0.5 2.1 -2
v 0.5 2.2 -2
v 0.6 1.9 -2
v 0.6 2.1 -2
v 0.8 1.5 -2
v 0.8 1.6 -2
v 0.8 1.8 -2
v 0.8 1.9 -2
v 0.9 1.6 -2
v 0.9 1.8 -2
v -1.7 0.9 -1.9
v -1.6 0.9 -1.9
v -1.7 0.9 -2
v -1.6 0.9 -2
v -1.6 1 -1.9
v -1.5 1 -1.9
v -1.6 1 -2
v -1.5 1 -2
v -1.8 1.1 -1.9
v -1.7 1.1 -1.9
v -1.8 1.1 -2
v -1.7 1.1 -2
v -2 1.3 -1.9
v -1.8 1.3 -1.9
v -0.6 1.3 -1.9
v -0.2 1.3 -1.9
v -2 1.3 -2
v -1.8 1.3 -2
v -0.6 1.3 -2
v -0.2 1.3 -2
v -2.3 1.4 -1.9
v -2 1.4 -1.9
v -0.2 1.4 -1.9
v -0.1 1.4 -1.9
v 0.3 1.4 -1.9
v -2.3 1.4 -2
v -2 1.4 -2
v -0.2 1.4 -2
v -0.1 1.4 -2
v 0.3 1.4 -2
v -1.5 1.5 -1.9
v -1.4 1.5 -1.9
v -0.7 1.5 -1.9
v -0.5 1.5 -1.9
v 0.3 1.5 -1.9
v 0.8 1.5 -1.9
v -1.5 1.5 -2
v -1.4 1.5 -2
v -0.7 1.5 -2
v -0.5 1.5 -2
v 0.3 1.5 -2
v 0.8 1.5 -2
v -1.4 1.6 -1.9
v -1.2 1.6 -1.9
v -0.7 1.6 -1.9
v 0.8 1.6 -1.9
v 0.9 1.6 -1.9
v -1.4 1.6 -2
v -1.2 1.6 -2
v -0.7 1.6 -2
v 0.8 1.6 -2
v 0.9 1.6 -2
v -0.9 2.6 -1.9
v -0.8 2.6 -1.9
v -0.9 2.6 -2
v -0.8 2.6 -2
v -1 2.7 -1.9
v -0.9 2.7 -1.9
v -1 2.7 -2
v -0.9 2.7 -2
v -0.6 1.4 -1.9
v -0.5 1.4 -1.9
v -0.6 1.4 -2
v -0.5 1.4 -2
v -2.3 1.5 -1.9
v -2.2 1.5 -1.9
v -2.3 1.5 -2
v -2.2 1.5 -2
v -2.2 1.6 -1.9
v -1.8 1.6 -1.9
v -2.2 1.6 -2
v -1.8 1.6 -2
v -1.8 1.7 -1.9
v -1.7 1.7 -1.9
v -1.8 1.7 -2
v -1.7 1.7 -2
v -1.7 1.8 -1.9
v -1.6 1.8 -1.9
v 0.8 1.8 -1.9
v 0.9 1.8 -1.9
v -1.7 1.8 -2
v -1.6 1.8 -2
v 0.8 1.8 -2
v 0.9 1.8 -2
v -1.6 1.9 -1.9
v -1.5 1.9 -1.9
v 0.6 1.9 -1.9
v 0.8 1.9 -1.9
v -1.6 1.9 -2
v -1.5 1.9 -2
v 0.6 1.9 -2
v 0.8 1.9 -2
v -1.5 2.1 -1.9
v -1.4 2.1 -1.9
v 0.5 2.1 -1.9
v 0.6 2.1 -1.9
v -1.5 2.1 -2
v -1.4 2.1 -2
v 0.5 2.1 -2
v 0.6 2.1 -2
v -1.4 2.2 -1.9
v -1.3 2.2 -1.9
v 0.4 2.2 -1.9
v 0.5 2.2 -1.9
v -1.4 2.2 -2
v -1.3 2.2 -2
v 0.4 2.2 -2
v 0.5 2.2 -2
v -1.3 2.3 -1.9
v -1.1 2.3 -1.9
v 0.2 2.3 -1.9
v 0.4 2.3 -1.9
v -1.3 2.3 -2
v -1.1 2.3 -2
v 0.2 2.3 -2
v 0.4 2.3 -2
v -1.1 2.4 -1.9
v -0.8 2.4 -1.9
v -0.1 2.4 -1.9
v 0.2 2.4 -1.9
v -1.1 2.4 -2
v -0.8 2.4 -2
v -0.1 2.4 -2
v 0.2 2.4 -2
v -0.3 2.5 -1.9
v -0.1 2.5 -1.9
v -0.3 2.5 -2
v -0.1 2.5 -2
v -0.4 2.6 -1.9
v -0.3 2.6 -1.9
v -0.4 2.6 -2
v -0.3 2.6 -2
v -0.6 2.7 -1.9
v -0.4 2.7 -1.9
v -0.6 2.7 -2
v -0.4 2.7 -2
v -1 2.8 -1.9
v -0.6 2.8 -1.9
v -1 2.8 -2
v -0.6 2.8 -2

# faces
f 3/2/1 2/2/1 1/2/1
f 4/2/1 2/2/1 3/2/1
f 7/2/1 6/2/1 5/2/1
f 8/2/1 6/2/1 7/2/1
f 11/2/1 10/2/1 9/2/1
f 12/2/1 10/2/1 11/2/1
f 15/2/1 14/2/1 13/2/1
f 16/2/1 14/2/1 15/2/1
f 19/3/1 18/3/1 17/3/1
f 20/3/1 18/3/1 19/3/1
f 23/2/1 22/2/1 21/2/1
f 24/2/1 22/2/1 23/2/1
f 27/3/1 26/3/1 25/3/1
f 28/3/1 26/3/1 27/3/1
f 31/3/1 30/3/1 29/3/1
f 32/3/1 30/3/1 31/3/1
f 35/3/1 34/3/1 33/3/1
f 36/3/1 34/3/1 35/3/1
f 39/3/1 38/3/1 37/3/1
f 40/3/1 38/3/1 39/3/1
f 43/3/1 42/3/1 41/3/1
f 44/3/1 42/3/1 43/3/1
f 47/3/1 46/3/1 45/3/1
f 48/3/1 46/3/1 47/3/1
f 51/2/1 50/2/1 49/2/1
f 52/2/1 50/2/1 51/2/1
f 55/2/1 54/2/1 53/2/1
f 56/2/1 54/2/1 55/2/1
f 59/3/1 58/3/1 57/3/1
f 60/3/1 58/3/1 59/3/1
f 61/2/1 60/2/1 59/2/1
f 62/2/1 60/2/1 61/2/1
f 65/1/1 64/1/1 63/1/1
f 66/1/1 64/1/1 65/1/1
f 69/2/1 68/2/1 67/2/1
f 70/2/1 68/2/1 69/2/1
f 73/2/1 72/2/1 71/2/1
f 74/2/1 72/2/1 73/2/1
f 75/2/2 76/2/2 77/2/2
f 77/2/2 76/2/2 78/2/2
f 79/2/2 80/2/2 81/2/2
f 81/2/2 80/2/2 82/2/2
f 81/3/2 82/3/2 83/3/2
f 83/3/2 82/3/2 84/3/2
f 85/3/2 86/3/2 87/3/2
f 87/3/2 86/3/2 88/3/2
f 89/2/2 90/2/2 91/2/2
f 91/2/2 90/2/2 92/2/2
f 93/2/2 94/2/2 95/2/2
f 95/2/2 94/2/2 96/2/2
f 97/2/2 98/2/2 99/2/2
f 99/2/2 98/2/2 100/2/2
f 101/2/2 102/2/2 103/2/2
f 103/2/2 102/2/2 104/2/2
f 105/3/2 106/3/2 107/3/2
f 107/3/2 106/3/2 108/3/2
f 109/3/2 110/3/2 111/3/2
f 111/3/2 110/3/2 112/3/2
f 113/1/2 114/1/2 115/1/2
f 115/1/2 114/1/2 116/1/2
f 117/3/2 118/3/2 119/3/2
f 119/3/2 118/3/2 120/3/2
f 121/3/2 122/3/2 123/3/2
f 123/3/2 122/3/2 124/3/2
f 125/3/2 126/3/2 127/3/2
f 127/3/2 126/3/2 128/3/2
f 129/1/2 130/1/2 131/1/2
f 131/1/2 130/1/2 132/1/2
f 133/3/2 134/3/2 135/3/2
f 135/3/2 134/3/2 136/3/2
f 137/3/2 138/3/2 139/3/2
f 139/3/2 138/3/2 140/3/2
f 143/2/3 142/2/3 141/2/3
f 146/2/3 143/2/3 141/2/3
f 146/2/3 144/2/3 143/2/3
f 148/2/3 146/2/3 145/2/3
f 149/2/3 144/2/3 146/2/3
f 149/2/3 146/2/3 148/2/3
f 152/2/3 148/2/3 147/2/3
f 152/2/3 149/2/3 148/2/3
f 153/2/3 149/2/3 152/2/3
f 154/3/3 150/3/3 149/3/3
f 154/2/3 149/2/3 153/2/3
f 155/3/3 150/3/3 154/3/3
f 157/2/3 153/2/3 152/2/3
f 157/2/3 152/2/3 151/2/3
f 158/2/3 153/2/3 157/2/3
f 159/3/3 156/3/3 155/3/3
f 159/3/3 155/3/3 154/3/3
f 159/3/3 154/3/3 153/3/3
f 161/2/3 153/2/3 158/2/3
f 162/3/3 160/3/3 159/3/3
f 162/2/3 153/2/3 161/2/3
f 162/3/3 159/3/3 153/3/3
f 163/3/3 160/3/3 162/3/3
f 164/3/3 160/3/3 163/3/3
f 166/3/3 165/3/3 164/3/3
f 166/3/3 164/3/3 163/3/3
f 167/3/3 165/3/3 166/3/3
f 168/3/3 165/3/3 167/3/3
f 170/3/3 169/3/3 168/3/3
f 170/3/3 168/3/3 167/3/3
f 172/3/3 170/3/3 167/3/3
f 172/3/3 171/3/3 170/3/3
f 173/3/3 171/3/3 172/3/3
f 174/3/3 171/3/3 173/3/3
f 176/1/3 173/1/3 172/1/3
f 176/3/3 175/3/3 174/3/3
f 176/3/3 174/3/3 173/3/3
f 177/3/3 175/3/3 176/3/3
f 181/2/3 179/2/3 178/2/3
f 182/3/3 175/3/3 177/3/3
f 184/2/3 181/2/3 180/2/3
f 186/1/3 176/1/3 172/1/3
f 186/1/3 177/1/3 176/1/3
f 189/2/3 184/2/3 183/2/3
f 189/2/3 181/2/3 184/2/3
f 189/2/3 179/2/3 181/2/3
f 190/2/3 179/2/3 189/2/3
f 191/2/3 188/2/3 187/2/3
f 192/1/3 186/1/3 185/1/3
f 193/1/3 186/1/3 192/1/3
f 193/2/3 192/2/3 191/2/3
f 194/1/3 177/1/3 186/1/3
f 194/1/3 186/1/3 193/1/3
f 195/2/3 189/2/3 183/2/3
f 196/2/3 189/2/3 195/2/3
f 197/1/3 177/1/3 194/1/3
f 197/2/3 194/2/3 193/2/3
f 198/1/3 177/1/3 197/1/3
f 199/3/3 183/3/3 182/3/3
f 199/2/3 195/2/3 183/2/3
f 200/2/3 195/2/3 199/2/3
f 201/2/3 191/2/3 187/2/3
f 201/2/3 193/2/3 191/2/3
f 201/2/3 198/2/3 197/2/3
f 201/2/3 197/2/3 193/2/3
f 202/2/3 198/2/3 201/2/3
f 203/1/3 177/1/3 198/1/3
f 203/2/3 198/2/3 202/2/3
f 204/3/3 199/3/3 182/3/3
f 204/1/3 177/1/3 203/1/3
f 204/3/3 182/3/3 177/3/3
f 205/2/3 203/2/3 202/2/3
f 206/2/3 203/2/3 205/2/3
f 207/3/3 199/3/3 204/3/3
f 207/3/3 204/3/3 203/3/3
f 208/3/3 199/3/3 207/3/3
f 209/2/3 203/2/3 206/2/3
f 209/1/3 206/1/3 205/1/3
f 210/3/3 207/3/3 203/3/3
f 210/2/3 203/2/3 209/2/3
f 211/3/3 207/3/3 210/3/3
f 212/3/3 207/3/3 211/3/3
f 213/3/3 211/3/3 210/3/3
f 213/1/3 212/1/3 211/1/3
f 214/1/3 212/1/3 213/1/3
f 215/3/3 207/3/3 212/3/3
f 216/3/3 207/3/3 215/3/3
f 217/1/3 209/1/3 205/1/3
f 217/1/3 210/1/3 209/1/3
f 218/1/3 210/1/3 217/1/3
f 219/3/3 213/3/3 210/3/3
f 219/4/3 214/4/3 213/4/3
f 220/1/3 212/1/3 214/1/3
f 220/4/3 214/4/3 219/4/3
f 221/3/3 215/3/3 212/3/3
f 221/1/3 212/1/3 220/1/3
f 222/1/3 210/1/3 218/1/3
f 223/3/3 220/3/3 219/3/3
f 223/1/3 210/1/3 222/1/3
f 223/3/3 219/3/3 210/3/3
f 223/3/3 221/3/3 220/3/3
f 224/3/3 215/3/3 221/3/3
f 224/3/3 221/3/3 223/3/3
f 225/3/3 215/3/3 224/3/3
f 226/3/3 223/3/3 222/3/3
f 226/3/3 224/3/3 223/3/3
f 227/3/3 224/3/3 226/3/3
f 228/3/3 226/3/3 222/3/3
f 229/3/3 226/3/3 228/3/3
f 230/1/3 222/1/3 218/1/3
f 231/3/3 228/3/3 222/3/3
f 231/1/3 222/1/3 230/1/3
f 232/3/3 228/3/3 231/3/3
f 233/3/3 228/3/3 232/3/3
f 234/3/3 232/3/3 231/3/3
f 235/3/3 232/3/3 234/3/3
f 236/2/4 237/2/4 238/2/4
f 236/2/4 238/2/4 241/2/4
f 238/2/4 239/2/4 241/2/4
f 240/2/4 241/2/4 243/2/4
f 241/2/4 239/2/4 244/2/4
f 243/2/4 241/2/4 244/2/4
f 242/2/4 243/2/4 247/2/4
f 243/2/4 244/2/4 247/2/4
f 247/2/4 244/2/4 248/2/4
f 244/3/4 245/3/4 249/3/4
f 248/2/4 244/2/4 249/2/4
f 249/3/4 245/3/4 250/3/4
f 247/2/4 248/2/4 252/2/4
f 246/2/4 247/2/4 252/2/4
f 252/2/4 248/2/4 253/2/4
f 250/3/4 251/3/4 254/3/4
f 249/3/4 250/3/4 254/3/4
f 248/3/4 249/3/4 254/3/4
f 253/2/4 248/2/4 256/2/4
f 254/3/4 255/3/4 257/3/4
f 256/2/4 248/2/4 257/2/4
f 248/3/4 254/3/4 257/3/4
f 257/3/4 255/3/4 258/3/4
f 258/3/4 255/3/4 259/3/4
f 259/3/4 260/3/4 261/3/4
f 258/3/4 259/3/4 261/3/4
f 261/3/4 260/3/4 262/3/4
f 262/3/4 260/3/4 263/3/4
f 263/3/4 264/3/4 265/3/4
f 262/3/4 263/3/4 265/3/4
f 262/3/4 265/3/4 267/3/4
f 265/3/4 266/3/4 267/3/4
f 267/3/4 266/3/4 268/3/4
f 268/3/4 266/3/4 269/3/4
f 267/1/4 268/1/4 271/1/4
f 269/3/4 270/3/4 271/3/4
f 268/3/4 269/3/4 271/3/4
f 271/3/4 270/3/4 272/3/4
f 273/2/4 274/2/4 276/2/4
f 272/3/4 270/3/4 277/3/4
f 275/2/4 276/2/4 279/2/4
f 267/1/4 271/1/4 281/1/4
f 271/1/4 272/1/4 281/1/4
f 278/2/4 279/2/4 284/2/4
f 279/2/4 276/2/4 284/2/4
f 276/2/4 274/2/4 284/2/4
f 284/2/4 274/2/4 285/2/4
f 282/2/4 283/2/4 286/2/4
f 280/1/4 281/1/4 287/1/4
f 287/1/4 281/1/4 288/1/4
f 286/2/4 287/2/4 288/2/4
f 281/1/4 272/1/4 289/1/4
f 288/1/4 281/1/4 289/1/4
f 278/2/4 284/2/4 290/2/4
f 290/2/4 284/2/4 291/2/4
f 289/1/4 272/1/4 292/1/4
f 288/2/4 289/2/4 292/2/4
f 292/1/4 272/1/4 293/1/4
f 277/3/4 278/3/4 294/3/4
f 278/2/4 290/2/4 294/2/4
f 294/2/4 290/2/4 295/2/4
f 282/2/4 286/2/4 296/2/4
f 286/2/4 288/2/4 296/2/4
f 292/2/4 293/2/4 296/2/4
f 288/2/4 292/2/4 296/2/4
f 296/2/4 293/2/4 297/2/4
f 293/1/4 272/1/4 298/1/4
f 297/2/4 293/2/4 298/2/4
f 277/3/4 294/3/4 299/3/4
f 298/1/4 272/1/4 299/1/4
f 272/3/4 277/3/4 299/3/4
f 297/2/4 298/2/4 300/2/4
f 300/2/4 298/2/4 301/2/4
f 299/3/4 294/3/4 302/3/4
f 298/3/4 299/3/4 302/3/4
f 302/3/4 294/3/4 303/3/4
f 301/2/4 298/2/4 304/2/4
f 300/1/4 301/1/4 304/1/4
f 298/3/4 302/3/4 305/3/4
f 304/2/4 298/2/4 305/2/4
f 305/3/4 302/3/4 306/3/4
f 306/3/4 302/3/4 307/3/4
f 305/3/4 306/3/4 308/3/4
f 306/1/4 307/1/4 308/1/4
f 308/1/4 307/1/4 309/1/4
f 307/3/4 302/3/4 310/3/4
f 310/3/4 302/3/4 311/3/4
f 300/1/4 304/1/4 312/1/4
f 304/1/4 305/1/4 312/1/4
f 312/1/4 305/1/4 313/1/4
f 305/3/4 308/3/4 314/3/4
f 308/4/4 309/4/4 314/4/4
f 309/1/4 307/1/4 315/1/4
f 314/4/4 309/4/4 315/4/4
f 307/3/4 310/3/4 316/3/4
f 315/1/4 307/1/4 316/1/4
f 313/1/4 305/1/4 317/1/4
f 314/3/4 315/3/4 318/3/4
f 317/1/4 305/1/4 318/1/4
f 305/3/4 314/3/4 318/3/4
f 315/3/4 316/3/4 318/3/4
f 316/3/4 310/3/4 319/3/4
f 318/3/4 316/3/4 319/3/4
f 319/3/4 310/3/4 320/3/4
f 317/3/4 318/3/4 321/3/4
f 318/3/4 319/3/4 321/3/4
f 321/3/4 319/3/4 322/3/4
f 317/3/4 321/3/4 323/3/4
f 323/3/4 321/3/4 324/3/4
f 313/1/4 317/1/4 325/1/4
f 317/3/4 323/3/4 326/3/4
f 325/1/4 317/1/4 326/1/4
f 326/3/4 323/3/4 327/3/4
f 327/3/4 323/3/4 328/3/4
f 326/3/4 327/3/4 329/3/4
f 329/3/4 327/3/4 330/3/4
f 333/2/5 332/2/5 331/2/5
f 334/2/5 332/2/5 333/2/5
f 337/2/5 336/2/5 335/2/5
f 338/2/5 336/2/5 337/2/5
f 341/2/5 340/2/5 339/2/5
f 342/2/5 340/2/5 341/2/5
f 347/2/5 344/2/5 343/2/5
f 348/2/5 344/2/5 347/2/5
f 349/2/5 346/2/5 345/2/5
f 350/2/5 346/2/5 349/2/5
f 356/2/5 352/2/5 351/2/5
f 357/2/5 352/2/5 356/2/5
f 358/2/5 354/2/5 353/2/5
f 359/1/5 355/1/5 354/1/5
f 359/2/5 354/2/5 358/2/5
f 360/1/5 355/1/5 359/1/5
f 367/3/5 362/3/5 361/3/5
f 368/3/5 362/3/5 367/3/5
f 369/1/5 364/1/5 363/1/5
f 370/1/5 364/1/5 369/1/5
f 371/1/5 366/1/5 365/1/5
f 372/1/5 366/1/5 371/1/5
f 378/3/5 374/3/5 373/3/5
f 379/1/5 375/1/5 374/1/5
f 379/3/5 374/3/5 378/3/5
f 380/1/5 375/1/5 379/1/5
f 381/3/5 377/3/5 376/3/5
f 382/3/5 377/3/5 381/3/5
f 385/2/5 384/2/5 383/2/5
f 386/2/5 384/2/5 385/2/5
f 389/2/5 388/2/5 387/2/5
f 390/2/5 388/2/5 389/2/5
f 391/2/6 392/2/6 393/2/6
f 393/2/6 392/2/6 394/2/6
f 395/2/6 396/2/6 397/2/6
f 397/2/6 396/2/6 398/2/6
f 399/2/6 400/2/6 401/2/6
f 401/2/6 400/2/6 402/2/6
f 403/3/6 404/3/6 405/3/6
f 405/3/6 404/3/6 406/3/6
f 407/3/6 408/3/6 411/3/6
f 411/3/6 408/3/6 412/3/6
f 409/3/6 410/3/6 413/3/6
f 413/3/6 410/3/6 414/3/6
f 415/3/6 416/3/6 419/3/6
f 419/3/6 416/3/6 420/3/6
f 417/3/6 418/3/6 421/3/6
f 421/3/6 418/3/6 422/3/6
f 423/3/6 424/3/6 427/3/6
f 427/3/6 424/3/6 428/3/6
f 425/3/6 426/3/6 429/3/6
f 429/3/6 426/3/6 430/3/6
f 431/3/6 432/3/6 435/3/6
f 435/3/6 432/3/6 436/3/6
f 433/3/6 434/3/6 437/3/6
f 437/3/6 434/3/6 438/3/6
f 439/3/6 440/3/6 443/3/6
f 443/3/6 440/3/6 444/3/6
f 441/3/6 442/3/6 445/3/6
f 445/3/6 442/3/6 446/3/6
f 447/3/6 448/3/6 451/3/6
f 451/3/6 448/3/6 452/3/6
f 449/3/6 450/3/6 453/3/6
f 453/3/6 450/3/6 454/3/6
f 455/3/6 456/3/6 457/3/6
f 457/3/6 456/3/6 458/3/6
f 459/2/6 460/2/6 461/2/6
f 461/2/6 460/2/6 462/2/6
f 463/2/6 464/2/6 465/2/6
f 465/2/6 464/2/6 466/2/6
f 467/2/6 468/2/6 469/2/6
f 469/2/6 468/2/6 470/2/6
