# MagicaVoxel @ Ephtracy

# group
o 

# material
mtllib fish-1.mtl
usemtl palette

# normals
vn -1 0 0
vn 1 0 0
vn 0 0 1
vn 0 0 -1
vn 0 -1 0
vn 0 1 0

# texcoords
vt 0.00195313 0.5
vt 0.0917969 0.5
vt 0.994141 0.5

# verts
v -0.9 1.8 -1.9
v -0.9 1.8 -2
v -0.9 2 -1.9
v -0.9 2 -2
v -0.9 2.2 -1.9
v -0.9 2.2 -2
v -0.9 2.4 -1.9
v -0.9 2.4 -2
v -0.8 2 -1.9
v -0.8 2 -2
v -0.8 2.2 -1.9
v -0.8 2.2 -2
v -0.6 1.9 -1.9
v -0.6 1.9 -2
v -0.6 2 -1.9
v -0.6 2 -2
v -0.6 2.2 -1.9
v -0.6 2.2 -2
v -0.6 2.3 -1.9
v -0.6 2.3 -2
v -0.5 1.8 -1.9
v -0.5 1.8 -2
v -0.5 1.9 -1.9
v -0.5 1.9 -2
v -0.5 2.3 -1.9
v -0.5 2.3 -2
v -0.5 2.4 -1.9
v -0.5 2.4 -2
v -0.7 1.8 -1.9
v -0.7 1.8 -2
v -0.7 2 -1.9
v -0.7 2 -2
v -0.7 2.2 -1.9
v -0.7 2.2 -2
v -0.7 2.4 -1.9
v -0.7 2.4 -2
v -0.2 1.8 -1.9
v -0.2 1.8 -2
v -0.2 1.9 -1.9
v -0.2 1.9 -2
v -0.2 2.3 -1.9
v -0.2 2.3 -2
v -0.2 2.4 -1.9
v -0.2 2.4 -2
v -0.1 1.9 -1.9
v -0.1 1.9 -2
v -0.1 2 -1.9
v -0.1 2 -2
v -0.1 2.2 -1.9
v -0.1 2.2 -2
v -0.1 2.3 -1.9
v -0.1 2.3 -2
v 0 2 -1.9
v 0 2 -2
v 0 2.2 -1.9
v 0 2.2 -2
v -0.9 1.8 -1.9
v -0.9 2 -1.9
v -0.9 2.2 -1.9
v -0.9 2.4 -1.9
v -0.8 2 -1.9
v -0.8 2.2 -1.9
v -0.7 1.8 -1.9
v -0.7 2 -1.9
v -0.7 2.2 -1.9
v -0.7 2.4 -1.9
v -0.6 1.9 -1.9
v -0.6 2 -1.9
v -0.6 2.2 -1.9
v -0.6 2.3 -1.9
v -0.5 1.8 -1.9
v -0.5 1.9 -1.9
v -0.5 2.3 -1.9
v -0.5 2.4 -1.9
v -0.4 1.8 -1.9
v -0.4 2 -1.9
v -0.4 2.1 -1.9
v -0.4 2.4 -1.9
v -0.3 1.8 -1.9
v -0.3 2 -1.9
v -0.3 2.1 -1.9
v -0.3 2.4 -1.9
v -0.2 1.8 -1.9
v -0.2 1.9 -1.9
v -0.2 2.1 -1.9
v -0.2 2.2 -1.9
v -0.2 2.3 -1.9
v -0.2 2.4 -1.9
v -0.1 1.9 -1.9
v -0.1 2 -1.9
v -0.1 2.1 -1.9
v -0.1 2.2 -1.9
v -0.1 2.3 -1.9
v 0 2 -1.9
v 0 2.2 -1.9
v -0.9 1.8 -2
v -0.9 2 -2
v -0.9 2.2 -2
v -0.9 2.4 -2
v -0.8 2 -2
v -0.8 2.2 -2
v -0.7 1.8 -2
v -0.7 2 -2
v -0.7 2.2 -2
v -0.7 2.4 -2
v -0.6 1.9 -2
v -0.6 2 -2
v -0.6 2.2 -2
v -0.6 2.3 -2
v -0.5 1.8 -2
v -0.5 1.9 -2
v -0.5 2.3 -2
v -0.5 2.4 -2
v -0.4 1.8 -2
v -0.4 2 -2
v -0.4 2.1 -2
v -0.4 2.4 -2
v -0.3 1.8 -2
v -0.3 2 -2
v -0.3 2.1 -2
v -0.3 2.4 -2
v -0.2 1.8 -2
v -0.2 1.9 -2
v -0.2 2.1 -2
v -0.2 2.2 -2
v -0.2 2.3 -2
v -0.2 2.4 -2
v -0.1 1.9 -2
v -0.1 2 -2
v -0.1 2.1 -2
v -0.1 2.2 -2
v -0.1 2.3 -2
v 0 2 -2
v 0 2.2 -2
v -0.9 1.8 -1.9
v -0.7 1.8 -1.9
v -0.5 1.8 -1.9
v -0.4 1.8 -1.9
v -0.3 1.8 -1.9
v -0.2 1.8 -1.9
v -0.9 1.8 -2
v -0.7 1.8 -2
v -0.5 1.8 -2
v -0.4 1.8 -2
v -0.3 1.8 -2
v -0.2 1.8 -2
v -0.6 1.9 -1.9
v -0.5 1.9 -1.9
v -0.2 1.9 -1.9
v -0.1 1.9 -1.9
v -0.6 1.9 -2
v -0.5 1.9 -2
v -0.2 1.9 -2
v -0.1 1.9 -2
v -0.7 2 -1.9
v -0.6 2 -1.9
v -0.1 2 -1.9
v 0 2 -1.9
v -0.7 2 -2
v -0.6 2 -2
v -0.1 2 -2
v 0 2 -2
v -0.9 2.2 -1.9
v -0.8 2.2 -1.9
v -0.9 2.2 -2
v -0.8 2.2 -2
v -0.9 2 -1.9
v -0.8 2 -1.9
v -0.9 2 -2
v -0.8 2 -2
v -0.7 2.2 -1.9
v -0.6 2.2 -1.9
v -0.1 2.2 -1.9
v 0 2.2 -1.9
v -0.7 2.2 -2
v -0.6 2.2 -2
v -0.1 2.2 -2
v 0 2.2 -2
v -0.6 2.3 -1.9
v -0.5 2.3 -1.9
v -0.2 2.3 -1.9
v -0.1 2.3 -1.9
v -0.6 2.3 -2
v -0.5 2.3 -2
v -0.2 2.3 -2
v -0.1 2.3 -2
v -0.9 2.4 -1.9
v -0.7 2.4 -1.9
v -0.5 2.4 -1.9
v -0.4 2.4 -1.9
v -0.3 2.4 -1.9
v -0.2 2.4 -1.9
v -0.9 2.4 -2
v -0.7 2.4 -2
v -0.5 2.4 -2
v -0.4 2.4 -2
v -0.3 2.4 -2
v -0.2 2.4 -2

# faces
f 3/2/1 2/2/1 1/2/1
f 4/2/1 2/2/1 3/2/1
f 7/2/1 6/2/1 5/2/1
f 8/2/1 6/2/1 7/2/1
f 11/2/1 10/2/1 9/2/1
f 12/2/1 10/2/1 11/2/1
f 15/2/1 14/2/1 13/2/1
f 16/2/1 14/2/1 15/2/1
f 19/2/1 18/2/1 17/2/1
f 20/2/1 18/2/1 19/2/1
f 23/2/1 22/2/1 21/2/1
f 24/2/1 22/2/1 23/2/1
f 27/2/1 26/2/1 25/2/1
f 28/2/1 26/2/1 27/2/1
f 29/2/2 30/2/2 31/2/2
f 31/2/2 30/2/2 32/2/2
f 33/2/2 34/2/2 35/2/2
f 35/2/2 34/2/2 36/2/2
f 37/2/2 38/2/2 39/2/2
f 39/2/2 38/2/2 40/2/2
f 41/2/2 42/2/2 43/2/2
f 43/2/2 42/2/2 44/2/2
f 45/2/2 46/2/2 47/2/2
f 47/2/2 46/2/2 48/2/2
f 49/2/2 50/2/2 51/2/2
f 51/2/2 50/2/2 52/2/2
f 53/2/2 54/2/2 55/2/2
f 55/2/2 54/2/2 56/2/2
f 61/2/3 58/2/3 57/2/3
f 62/2/3 60/2/3 59/2/3
f 63/2/3 61/2/3 57/2/3
f 63/2/3 62/2/3 61/2/3
f 64/2/3 62/2/3 63/2/3
f 65/2/3 60/2/3 62/2/3
f 65/2/3 62/2/3 64/2/3
f 66/2/3 60/2/3 65/2/3
f 68/1/3 65/1/3 64/1/3
f 69/1/3 65/1/3 68/1/3
f 72/2/3 68/2/3 67/2/3
f 72/2/3 70/2/3 69/2/3
f 72/2/3 69/2/3 68/2/3
f 73/2/3 70/2/3 72/2/3
f 75/2/3 72/2/3 71/2/3
f 75/2/3 74/2/3 73/2/3
f 75/2/3 73/2/3 72/2/3
f 76/2/3 74/2/3 75/2/3
f 77/2/3 74/2/3 76/2/3
f 78/2/3 74/2/3 77/2/3
f 79/1/3 76/1/3 75/1/3
f 80/2/3 77/2/3 76/2/3
f 80/1/3 76/1/3 79/1/3
f 81/1/3 78/1/3 77/1/3
f 81/2/3 77/2/3 80/2/3
f 82/1/3 78/1/3 81/1/3
f 83/2/3 80/2/3 79/2/3
f 83/2/3 81/2/3 80/2/3
f 83/2/3 82/2/3 81/2/3
f 84/2/3 82/2/3 83/2/3
f 85/2/3 82/2/3 84/2/3
f 86/2/3 82/2/3 85/2/3
f 87/2/3 82/2/3 86/2/3
f 88/2/3 82/2/3 87/2/3
f 89/2/3 85/2/3 84/2/3
f 90/2/3 85/2/3 89/2/3
f 91/3/3 86/3/3 85/3/3
f 91/2/3 85/2/3 90/2/3
f 92/2/3 87/2/3 86/2/3
f 92/3/3 86/3/3 91/3/3
f 93/2/3 87/2/3 92/2/3
f 94/2/3 91/2/3 90/2/3
f 94/2/3 92/2/3 91/2/3
f 95/2/3 92/2/3 94/2/3
f 96/2/4 97/2/4 100/2/4
f 98/2/4 99/2/4 101/2/4
f 96/2/4 100/2/4 102/2/4
f 100/2/4 101/2/4 102/2/4
f 102/2/4 101/2/4 103/2/4
f 101/2/4 99/2/4 104/2/4
f 103/2/4 101/2/4 104/2/4
f 104/2/4 99/2/4 105/2/4
f 103/1/4 104/1/4 107/1/4
f 107/1/4 104/1/4 108/1/4
f 106/2/4 107/2/4 111/2/4
f 108/2/4 109/2/4 111/2/4
f 107/2/4 108/2/4 111/2/4
f 111/2/4 109/2/4 112/2/4
f 110/2/4 111/2/4 114/2/4
f 112/2/4 113/2/4 114/2/4
f 111/2/4 112/2/4 114/2/4
f 114/2/4 113/2/4 115/2/4
f 115/2/4 113/2/4 116/2/4
f 116/2/4 113/2/4 117/2/4
f 114/1/4 115/1/4 118/1/4
f 115/2/4 116/2/4 119/2/4
f 118/1/4 115/1/4 119/1/4
f 116/1/4 117/1/4 120/1/4
f 119/2/4 116/2/4 120/2/4
f 120/1/4 117/1/4 121/1/4
f 118/2/4 119/2/4 122/2/4
f 119/2/4 120/2/4 122/2/4
f 120/2/4 121/2/4 122/2/4
f 122/2/4 121/2/4 123/2/4
f 123/2/4 121/2/4 124/2/4
f 124/2/4 121/2/4 125/2/4
f 125/2/4 121/2/4 126/2/4
f 126/2/4 121/2/4 127/2/4
f 123/2/4 124/2/4 128/2/4
f 128/2/4 124/2/4 129/2/4
f 124/3/4 125/3/4 130/3/4
f 129/2/4 124/2/4 130/2/4
f 125/2/4 126/2/4 131/2/4
f 130/3/4 125/3/4 131/3/4
f 131/2/4 126/2/4 132/2/4
f 129/2/4 130/2/4 133/2/4
f 130/2/4 131/2/4 133/2/4
f 133/2/4 131/2/4 134/2/4
f 141/2/5 136/2/5 135/2/5
f 142/2/5 136/2/5 141/2/5
f 143/2/5 138/2/5 137/2/5
f 144/1/5 139/1/5 138/1/5
f 144/2/5 138/2/5 143/2/5
f 145/2/5 140/2/5 139/2/5
f 145/1/5 139/1/5 144/1/5
f 146/2/5 140/2/5 145/2/5
f 151/2/5 148/2/5 147/2/5
f 152/2/5 148/2/5 151/2/5
f 153/2/5 150/2/5 149/2/5
f 154/2/5 150/2/5 153/2/5
f 159/1/5 156/1/5 155/1/5
f 160/1/5 156/1/5 159/1/5
f 161/2/5 158/2/5 157/2/5
f 162/2/5 158/2/5 161/2/5
f 165/2/5 164/2/5 163/2/5
f 166/2/5 164/2/5 165/2/5
f 167/2/6 168/2/6 169/2/6
f 169/2/6 168/2/6 170/2/6
f 171/1/6 172/1/6 175/1/6
f 175/1/6 172/1/6 176/1/6
f 173/2/6 174/2/6 177/2/6
f 177/2/6 174/2/6 178/2/6
f 179/2/6 180/2/6 183/2/6
f 183/2/6 180/2/6 184/2/6
f 181/2/6 182/2/6 185/2/6
f 185/2/6 182/2/6 186/2/6
f 187/2/6 188/2/6 193/2/6
f 193/2/6 188/2/6 194/2/6
f 189/2/6 190/2/6 195/2/6
f 190/1/6 191/1/6 196/1/6
f 195/2/6 190/2/6 196/2/6
f 191/2/6 192/2/6 197/2/6
f 196/1/6 191/1/6 197/1/6
f 197/2/6 192/2/6 198/2/6
